<svg xmlns="http://www.w3.org/2000/svg" width="192" height="192" viewBox="0 0 192 192">

<rect x="0" y="0" width="192" height="192" style="fill: #70f3ff; stroke: none;"/>

<defs>

<g id="2">
    <path d="M6.646 6.24v.07H5.375v-.064c0-1.213.879-2.402 2.637-2.402 1.582 0 2.613.949 2.613 2.215 0 1.002-.6 1.667-1.287 2.43l-.096.107-1.974 2.22v.077h3.498V12H5.422v-.832l2.97-3.293c.434-.475.903-1.008.903-1.705 0-.744-.557-1.236-1.313-1.236-.843 0-1.336.615-1.336 1.306"/>
    <path d="M0 2a2 2 0 0 1 2-2h12a2 2 0 0 1 2 2v12a2 2 0 0 1-2 2H2a2 2 0 0 1-2-2zm15 0a1 1 0 0 0-1-1H2a1 1 0 0 0-1 1v12a1 1 0 0 0 1 1h12a1 1 0 0 0 1-1z"/>
</g>

<g id="0">
    <path d="M8 4.951c-1.008 0-1.629 1.09-1.629 2.895v.31c0 1.81.627 2.895 1.629 2.895s1.623-1.09 1.623-2.895v-.31c0-1.8-.621-2.895-1.623-2.895"/>
    <path d="M2 0a2 2 0 0 0-2 2v12a2 2 0 0 0 2 2h12a2 2 0 0 0 2-2V2a2 2 0 0 0-2-2zm5.988 12.158c-1.851 0-2.941-1.57-2.941-3.99V7.84c0-2.408 1.101-3.996 2.965-3.996 1.857 0 2.935 1.57 2.935 3.996v.328c0 2.408-1.101 3.99-2.959 3.99"/>
</g>

<g id="4">
  <path d="M6.225 9.281v.053H8.85V5.063h-.065c-.867 1.33-1.787 2.806-2.56 4.218"/>
  <path d="M2 0a2 2 0 0 0-2 2v12a2 2 0 0 0 2 2h12a2 2 0 0 0 2-2V2a2 2 0 0 0-2-2zm5.519 5.057q.33-.527.657-1.055h1.933v5.332h1.008v1.107H10.11V12H8.85v-1.559H4.978V9.322c.77-1.427 1.656-2.847 2.542-4.265Z"/>
</g>

<g id="8">
    <path d="M10.97 9.803c0 1.394-1.218 2.355-2.988 2.355-1.763 0-2.953-.955-2.953-2.344 0-1.271.95-1.851 1.647-2.003v-.065c-.621-.193-1.33-.738-1.33-1.781 0-1.225 1.09-2.121 2.66-2.121s2.654.896 2.654 2.12c0 1.061-.738 1.595-1.336 1.782v.065c.703.152 1.647.744 1.647 1.992Zm-4.347-3.71c0 .739.586 1.255 1.383 1.255s1.377-.516 1.377-1.254c0-.733-.58-1.23-1.377-1.23s-1.383.497-1.383 1.23Zm-.281 3.645c0 .838.72 1.412 1.664 1.412.943 0 1.658-.574 1.658-1.412 0-.843-.715-1.424-1.658-1.424-.944 0-1.664.58-1.664 1.424"/>
    <path d="M0 2a2 2 0 0 1 2-2h12a2 2 0 0 1 2 2v12a2 2 0 0 1-2 2H2a2 2 0 0 1-2-2zm15 0a1 1 0 0 0-1-1H2a1 1 0 0 0-1 1v12a1 1 0 0 0 1 1h12a1 1 0 0 0 1-1z"/>
</g>

</defs>

<use href="#2" transform="translate(45, 45) scale(3)"/>
<use href="#0" transform="translate(100, 45) scale(3)"/>
<use href="#4" transform="translate(45, 100) scale(3)"/>
<use href="#8" transform="translate(100, 100) scale(3)"/>

</svg>
